<?xml version="1.0" encoding="UTF-8" standalone="no"?>
<!-- Created with Inkscape (http://www.inkscape.org/) -->

<svg
   width="210mm"
   height="297mm"
   viewBox="0 0 210 297"
   version="1.1"
   id="svg1"
   inkscape:version="1.3 (1:1.3+202307231459+0e150ed6c4)"
   sodipodi:docname="stanley_park.svg"
   xmlns:inkscape="http://www.inkscape.org/namespaces/inkscape"
   xmlns:sodipodi="http://sodipodi.sourceforge.net/DTD/sodipodi-0.dtd"
   xmlns="http://www.w3.org/2000/svg"
   xmlns:svg="http://www.w3.org/2000/svg">
  <sodipodi:namedview
     id="namedview1"
     pagecolor="#ffffff"
     bordercolor="#666666"
     borderopacity="1.0"
     inkscape:showpageshadow="2"
     inkscape:pageopacity="0.0"
     inkscape:pagecheckerboard="0"
     inkscape:deskcolor="#d1d1d1"
     inkscape:document-units="mm"
     inkscape:zoom="1.9612997"
     inkscape:cx="396.93068"
     inkscape:cy="296.48707"
     inkscape:window-width="1447"
     inkscape:window-height="1093"
     inkscape:window-x="344"
     inkscape:window-y="0"
     inkscape:window-maximized="0"
     inkscape:current-layer="layer1" />
  <defs
     id="defs1" />
  <g
     inkscape:label="Layer 1"
     inkscape:groupmode="layer"
     id="layer1">
    <path
       d="m 185.98798,102.87117 c -4.69517,0 -9.38991,0 -14.08507,0 -2.34759,-4.068346 -4.69474,-8.132382 -7.04232,-12.200723 -4.69474,0 -9.38991,0 -14.08465,0 -2.34758,4.068341 -4.69516,8.132377 -7.04275,12.200723 2.34759,4.06403 4.69517,8.13237 7.04275,12.19641 -2.34758,4.06404 -4.69516,8.13238 -7.04275,12.19641 2.34759,4.06834 4.69517,8.13238 7.04275,12.20072 4.69474,0 9.38991,0 14.08465,0 2.34758,-4.06834 4.69473,-8.13238 7.04232,-12.20072 4.69516,0 9.3899,0 14.08507,0 2.34758,-4.06403 4.69473,-8.13237 7.04232,-12.19641 -2.34759,-4.06404 -4.69474,-8.13238 -7.04232,-12.19641 z"
       style="fill:none;stroke:#b0b0b0;stroke-width:0.455624"
       id="path53" />
    <path
       d="m 143.73319,102.87117 c -4.69473,0 -9.3899,0 -14.08464,0 -2.34758,-4.068346 -4.69473,-8.132382 -7.04232,-12.200723 -4.69516,0 -9.3899,0 -14.08507,0 -2.34758,4.068341 -4.69474,8.132377 -7.04232,12.200723 2.34758,4.06403 4.69474,8.13237 7.04232,12.19641 -2.34758,4.06404 -4.69474,8.13238 -7.04232,12.19641 2.34758,4.06834 4.69474,8.13238 7.04232,12.20072 4.69517,0 9.38991,0 14.08507,0 2.34759,-4.06834 4.69474,-8.13238 7.04232,-12.20072 4.69474,0 9.38991,0 14.08464,0 2.34759,-4.06403 4.69517,-8.13237 7.04275,-12.19641 -2.34758,-4.06404 -4.69516,-8.13238 -7.04275,-12.19641 z"
       style="fill:none;stroke:#b0b0b0;stroke-width:0.455624"
       id="path55" />
    <path
       d="m 101.47884,102.87117 c -4.695169,0 -9.389906,0 -14.085073,0 -2.347583,-4.068346 -4.694737,-8.132382 -7.04232,-12.200723 -4.694737,0 -9.389904,0 -14.084641,0 -2.347584,4.068341 -4.695167,8.132377 -7.042751,12.200723 2.347584,4.06403 4.695167,8.13237 7.042751,12.19641 -2.347584,4.06404 -4.695167,8.13238 -7.042751,12.19641 2.347584,4.06834 4.695167,8.13238 7.042751,12.20072 4.694737,0 9.389904,0 14.084641,0 2.347583,-4.06834 4.694737,-8.13238 7.04232,-12.20072 4.695167,0 9.389904,0 14.085073,0 2.34758,-4.06403 4.69474,-8.13237 7.04232,-12.19641 -2.34758,-4.06404 -4.69474,-8.13238 -7.04232,-12.19641 z"
       style="fill:none;stroke:#b0b0b0;stroke-width:0.455624"
       id="path57" />
    <path
       d="m 59.224055,102.87117 c -4.694737,0 -9.389904,0 -14.084641,0 -2.347583,-4.068346 -4.694737,-8.132382 -7.04232,-12.200723 -4.695167,0 -9.389904,0 -14.085072,0 -2.347583,4.068341 -4.694736,8.132377 -7.04232,12.200723 2.347584,4.06403 4.694737,8.13237 7.04232,12.19641 -2.347583,4.06404 -4.694736,8.13238 -7.04232,12.19641 2.347584,4.06834 4.694737,8.13238 7.04232,12.20072 4.695168,0 9.389905,0 14.085072,0 2.347583,-4.06834 4.694737,-8.13238 7.04232,-12.20072 4.694737,0 9.389904,0 14.084641,0 2.347584,-4.06403 4.695167,-8.13237 7.042751,-12.19641 -2.347584,-4.06404 -4.695167,-8.13238 -7.042751,-12.19641 z"
       style="fill:none;stroke:#b0b0b0;stroke-width:0.455624"
       id="path59" />
    <path
       d="m 185.98798,29.684072 c -4.69517,0 -9.38991,0 -14.08507,0 -2.34759,-4.068341 -4.69474,-8.132377 -7.04232,-12.200718 -4.69474,0 -9.38991,0 -14.08465,0 -2.34758,4.068341 -4.69516,8.132377 -7.04275,12.200718 2.34759,4.064037 4.69517,8.132378 7.04275,12.196414 -2.34758,4.064037 -4.69516,8.132378 -7.04275,12.196414 2.34759,4.068341 4.69517,8.132378 7.04275,12.200719 4.69474,0 9.38991,0 14.08465,0 2.34758,-4.068341 4.69473,-8.132378 7.04232,-12.200719 4.69516,0 9.3899,0 14.08507,0 2.34758,-4.064036 4.69473,-8.132377 7.04232,-12.196414 -2.34759,-4.064036 -4.69474,-8.132377 -7.04232,-12.196414 z"
       style="fill:none;stroke:#b0b0b0;stroke-width:0.455624"
       id="path63" />
    <path
       d="m 164.86059,90.670447 c 2.34758,4.068341 4.69473,8.132377 7.04232,12.200723 4.69516,0 9.3899,0 14.08507,0 2.34758,-4.068346 4.69473,-8.132382 7.04232,-12.200723 -2.34759,-4.064037 -4.69474,-8.132378 -7.04232,-12.196414 2.34758,-4.064036 4.69473,-8.132378 7.04232,-12.196414 -2.34759,-4.068341 -4.69474,-8.132378 -7.04232,-12.200719 -4.69517,0 -9.38991,0 -14.08507,0 -2.34759,4.068341 -4.69474,8.132378 -7.04232,12.200719 -4.69474,0 -9.38991,0 -14.08465,0 -2.34758,4.064036 -4.69516,8.132378 -7.04275,12.196414 2.34759,4.064036 4.69517,8.132377 7.04275,12.196414 4.69474,0 9.38991,0 14.08465,0 z"
       style="fill:none;stroke:#b0b0b0;stroke-width:0.455624"
       id="path64" />
    <path
       d="m 143.73319,29.684072 c -4.69473,0 -9.3899,0 -14.08464,0 -2.34758,-4.068341 -4.69473,-8.132377 -7.04232,-12.200718 -4.69516,0 -9.3899,0 -14.08507,0 -2.34758,4.068341 -4.69474,8.132377 -7.04232,12.200718 2.34758,4.064037 4.69474,8.132378 7.04232,12.196414 -2.34758,4.064037 -4.69474,8.132378 -7.04232,12.196414 2.34758,4.068341 4.69474,8.132378 7.04232,12.200719 4.69517,0 9.38991,0 14.08507,0 2.34759,-4.068341 4.69474,-8.132378 7.04232,-12.200719 4.69474,0 9.38991,0 14.08464,0 2.34759,-4.064036 4.69517,-8.132377 7.04275,-12.196414 -2.34758,-4.064036 -4.69516,-8.132377 -7.04275,-12.196414 z"
       style="fill:none;stroke:#b0b0b0;stroke-width:0.455624"
       id="path65" />
    <path
       d="m 122.60623,90.670447 c 2.34759,4.068341 4.69474,8.132377 7.04232,12.200723 4.69474,0 9.38991,0 14.08464,0 2.34759,-4.068346 4.69517,-8.132382 7.04275,-12.200723 -2.34758,-4.064037 -4.69516,-8.132378 -7.04275,-12.196414 2.34759,-4.064036 4.69517,-8.132378 7.04275,-12.196414 -2.34758,-4.068341 -4.69516,-8.132378 -7.04275,-12.200719 -4.69473,0 -9.3899,0 -14.08464,0 -2.34758,4.068341 -4.69473,8.132378 -7.04232,12.200719 -4.69516,0 -9.3899,0 -14.08507,0 -2.34758,4.064036 -4.69474,8.132378 -7.04232,12.196414 2.34758,4.064036 4.69474,8.132377 7.04232,12.196414 4.69517,0 9.38991,0 14.08507,0 z"
       style="fill:none;stroke:#b0b0b0;stroke-width:0.455624"
       id="path66" />
    <path
       d="m 101.47884,29.684072 c -4.695169,0 -9.389906,0 -14.085073,0 -2.347583,-4.068341 -4.694737,-8.132377 -7.04232,-12.200718 -4.694737,0 -9.389904,0 -14.084641,0 -2.347584,4.068341 -4.695167,8.132377 -7.042751,12.200718 2.347584,4.064037 4.695167,8.132378 7.042751,12.196414 -2.347584,4.064037 -4.695167,8.132378 -7.042751,12.196414 2.347584,4.068341 4.695167,8.132378 7.042751,12.200719 4.694737,0 9.389904,0 14.084641,0 2.347583,-4.068341 4.694737,-8.132378 7.04232,-12.200719 4.695167,0 9.389904,0 14.085073,0 2.34758,-4.064036 4.69474,-8.132377 7.04232,-12.196414 -2.34758,-4.064036 -4.69474,-8.132377 -7.04232,-12.196414 z"
       style="fill:none;stroke:#b0b0b0;stroke-width:0.455624"
       id="path67" />
    <path
       d="m 80.351447,90.670447 c 2.347583,4.068341 4.694737,8.132377 7.04232,12.200723 4.695167,0 9.389904,0 14.085073,0 2.34758,-4.068346 4.69474,-8.132382 7.04232,-12.200723 -2.34758,-4.064037 -4.69474,-8.132378 -7.04232,-12.196414 2.34758,-4.064036 4.69474,-8.132378 7.04232,-12.196414 -2.34758,-4.068341 -4.69474,-8.132378 -7.04232,-12.200719 -4.695169,0 -9.389906,0 -14.085073,0 -2.347583,4.068341 -4.694737,8.132378 -7.04232,12.200719 -4.694737,0 -9.389904,0 -14.084641,0 -2.347584,4.064036 -4.695167,8.132378 -7.042751,12.196414 2.347584,4.064036 4.695167,8.132377 7.042751,12.196414 4.694737,0 9.389904,0 14.084641,0 z"
       style="fill:none;stroke:#b0b0b0;stroke-width:0.455624"
       id="path68" />
    <path
       d="m 59.224055,29.684072 c -4.694737,0 -9.389904,0 -14.084641,0 -2.347583,-4.068341 -4.694737,-8.132377 -7.04232,-12.200718 -4.695167,0 -9.389904,0 -14.085072,0 -2.347583,4.068341 -4.694736,8.132377 -7.04232,12.200718 2.347584,4.064037 4.694737,8.132378 7.04232,12.196414 -2.347583,4.064037 -4.694736,8.132378 -7.04232,12.196414 2.347584,4.068341 4.694737,8.132378 7.04232,12.200719 4.695168,0 9.389905,0 14.085072,0 2.347583,-4.068341 4.694737,-8.132378 7.04232,-12.200719 4.694737,0 9.389904,0 14.084641,0 2.347584,-4.064036 4.695167,-8.132377 7.042751,-12.196414 -2.347584,-4.064036 -4.695167,-8.132377 -7.042751,-12.196414 z"
       style="fill:none;stroke:#b0b0b0;stroke-width:0.455624"
       id="path69" />
    <path
       d="m 38.097094,90.670447 c 2.347583,4.068341 4.694737,8.132377 7.04232,12.200723 4.694737,0 9.389904,0 14.084641,0 2.347584,-4.068346 4.695167,-8.132382 7.042751,-12.200723 -2.347584,-4.064037 -4.695167,-8.132378 -7.042751,-12.196414 2.347584,-4.064036 4.695167,-8.132378 7.042751,-12.196414 -2.347584,-4.068341 -4.695167,-8.132378 -7.042751,-12.200719 -4.694737,0 -9.389904,0 -14.084641,0 -2.347583,4.068341 -4.694737,8.132378 -7.04232,12.200719 -4.695167,0 -9.389904,0 -14.085072,0 -2.347583,4.064036 -4.694736,8.132378 -7.04232,12.196414 2.347584,4.064036 4.694737,8.132377 7.04232,12.196414 4.695168,0 9.389905,0 14.085072,0 z"
       style="fill:none;stroke:#b0b0b0;stroke-width:0.455624"
       id="path70" />
    <rect
       x="-115.06759"
       y="41.617989"
       width="73.187096"
       height="42.254589"
       style="fill:none;stroke:#000000;stroke-width:1.29154;stroke-dasharray:none;stroke-opacity:1"
       id="rect126"
       transform="rotate(-90)" />
    <rect
       x="-115.06759"
       y="126.12736"
       width="73.187096"
       height="42.254589"
       style="fill:none;stroke:#000000;stroke-width:1.29154;stroke-dasharray:none;stroke-opacity:1"
       id="rect126-8"
       transform="rotate(-90)" />
    <circle
       style="fill:#00ffff;stroke:#999999;stroke-width:0.464438;stroke-miterlimit:4;stroke-dasharray:none;stroke-opacity:1;stop-color:#000000"
       id="circle11627-9-3-8"
       cx="66.266808"
       cy="115.06758"
       r="1.7012168" />
    <text
       xml:space="preserve"
       style="font-style:normal;font-variant:normal;font-weight:normal;font-stretch:normal;font-size:4.58611px;line-height:125%;font-family:'Bitstream Vera Sans';-inkscape-font-specification:'Bitstream Vera Sans, Normal';font-variant-ligatures:normal;font-variant-caps:normal;font-variant-numeric:normal;font-variant-east-asian:normal;letter-spacing:0px;word-spacing:0px;fill:#008080;stroke:none;stroke-width:2.31854px;stroke-linecap:butt;stroke-linejoin:miter;stroke-opacity:1"
       x="66.164917"
       y="112.50722"
       id="text152650-9-6-8-4-6-8-1"><tspan
         sodipodi:role="line"
         id="tspan152648-3-2-7-1-49-4-7"
         style="font-style:normal;font-variant:normal;font-weight:normal;font-stretch:normal;font-size:4.58611px;font-family:'Bitstream Vera Sans';-inkscape-font-specification:'Bitstream Vera Sans, Normal';font-variant-ligatures:normal;font-variant-caps:normal;font-variant-numeric:normal;font-variant-east-asian:normal;fill:#008080;stroke:none;stroke-width:2.31854px"
         x="66.164917"
         y="112.50722">0</tspan></text>
    <text
       xml:space="preserve"
       style="font-style:normal;font-variant:normal;font-weight:normal;font-stretch:normal;font-size:4.58611px;line-height:125%;font-family:'Bitstream Vera Sans';-inkscape-font-specification:'Bitstream Vera Sans, Normal';font-variant-ligatures:normal;font-variant-caps:normal;font-variant-numeric:normal;font-variant-east-asian:normal;letter-spacing:0px;word-spacing:0px;fill:#008080;stroke:none;stroke-width:2.31854px;stroke-linecap:butt;stroke-linejoin:miter;stroke-opacity:1"
       x="134.37061"
       y="111.35376"
       id="text152650-9-6-8-4-6-8-1-43"><tspan
         sodipodi:role="line"
         id="tspan152648-3-2-7-1-49-4-7-64"
         style="font-style:normal;font-variant:normal;font-weight:normal;font-stretch:normal;font-size:4.58611px;font-family:'Bitstream Vera Sans';-inkscape-font-specification:'Bitstream Vera Sans, Normal';font-variant-ligatures:normal;font-variant-caps:normal;font-variant-numeric:normal;font-variant-east-asian:normal;fill:#008080;stroke:none;stroke-width:2.31854px"
         x="134.37061"
         y="111.35376">A</tspan></text>
    <text
       xml:space="preserve"
       style="font-style:normal;font-variant:normal;font-weight:normal;font-stretch:normal;font-size:4.58611px;line-height:125%;font-family:'Bitstream Vera Sans';-inkscape-font-specification:'Bitstream Vera Sans, Normal';font-variant-ligatures:normal;font-variant-caps:normal;font-variant-numeric:normal;font-variant-east-asian:normal;letter-spacing:0px;word-spacing:0px;fill:#008080;stroke:none;stroke-width:2.31854px;stroke-linecap:butt;stroke-linejoin:miter;stroke-opacity:1"
       x="153.94977"
       y="105.00375"
       id="text152650-9-6-8-4-6-8-1-6"><tspan
         sodipodi:role="line"
         id="tspan152648-3-2-7-1-49-4-7-1"
         style="font-style:normal;font-variant:normal;font-weight:normal;font-stretch:normal;font-size:4.58611px;font-family:'Bitstream Vera Sans';-inkscape-font-specification:'Bitstream Vera Sans, Normal';font-variant-ligatures:normal;font-variant-caps:normal;font-variant-numeric:normal;font-variant-east-asian:normal;fill:#008080;stroke:none;stroke-width:2.31854px"
         x="153.94977"
         y="105.00375">B</tspan></text>
    <text
       xml:space="preserve"
       style="font-style:normal;font-variant:normal;font-weight:normal;font-stretch:normal;font-size:4.58611px;line-height:125%;font-family:'Bitstream Vera Sans';-inkscape-font-specification:'Bitstream Vera Sans, Normal';font-variant-ligatures:normal;font-variant-caps:normal;font-variant-numeric:normal;font-variant-east-asian:normal;letter-spacing:0px;word-spacing:0px;fill:#008080;stroke:none;stroke-width:2.31854px;stroke-linecap:butt;stroke-linejoin:miter;stroke-opacity:1"
       x="134.10602"
       y="81.455841"
       id="text152650-9-6-8-4-6-8-1-13"><tspan
         sodipodi:role="line"
         id="tspan152648-3-2-7-1-49-4-7-06"
         style="font-style:normal;font-variant:normal;font-weight:normal;font-stretch:normal;font-size:4.58611px;font-family:'Bitstream Vera Sans';-inkscape-font-specification:'Bitstream Vera Sans, Normal';font-variant-ligatures:normal;font-variant-caps:normal;font-variant-numeric:normal;font-variant-east-asian:normal;fill:#008080;stroke:none;stroke-width:2.31854px"
         x="134.10602"
         y="81.455841">C</tspan></text>
    <text
       xml:space="preserve"
       style="font-style:normal;font-variant:normal;font-weight:normal;font-stretch:normal;font-size:4.58611px;line-height:125%;font-family:'Bitstream Vera Sans';-inkscape-font-specification:'Bitstream Vera Sans, Normal';font-variant-ligatures:normal;font-variant-caps:normal;font-variant-numeric:normal;font-variant-east-asian:normal;letter-spacing:0px;word-spacing:0px;fill:#008080;stroke:none;stroke-width:2.31854px;stroke-linecap:butt;stroke-linejoin:miter;stroke-opacity:1"
       x="154.74353"
       y="79.339172"
       id="text152650-9-6-8-4-6-8-1-5"><tspan
         sodipodi:role="line"
         id="tspan152648-3-2-7-1-49-4-7-38"
         style="font-style:normal;font-variant:normal;font-weight:normal;font-stretch:normal;font-size:4.58611px;font-family:'Bitstream Vera Sans';-inkscape-font-specification:'Bitstream Vera Sans, Normal';font-variant-ligatures:normal;font-variant-caps:normal;font-variant-numeric:normal;font-variant-east-asian:normal;fill:#008080;stroke:none;stroke-width:2.31854px"
         x="154.74353"
         y="79.339172">D</tspan></text>
    <text
       xml:space="preserve"
       style="font-style:normal;font-variant:normal;font-weight:normal;font-stretch:normal;font-size:4.58611px;line-height:125%;font-family:'Bitstream Vera Sans';-inkscape-font-specification:'Bitstream Vera Sans, Normal';font-variant-ligatures:normal;font-variant-caps:normal;font-variant-numeric:normal;font-variant-east-asian:normal;letter-spacing:0px;word-spacing:0px;fill:#008080;stroke:none;stroke-width:2.31854px;stroke-linecap:butt;stroke-linejoin:miter;stroke-opacity:1"
       x="135.95811"
       y="50.235008"
       id="text152650-9-6-8-4-6-8-1-53"><tspan
         sodipodi:role="line"
         id="tspan152648-3-2-7-1-49-4-7-7"
         style="font-style:normal;font-variant:normal;font-weight:normal;font-stretch:normal;font-size:4.58611px;font-family:'Bitstream Vera Sans';-inkscape-font-specification:'Bitstream Vera Sans, Normal';font-variant-ligatures:normal;font-variant-caps:normal;font-variant-numeric:normal;font-variant-east-asian:normal;fill:#008080;stroke:none;stroke-width:2.31854px"
         x="135.95811"
         y="50.235008">E</tspan></text>
    <text
       xml:space="preserve"
       style="font-style:normal;font-variant:normal;font-weight:normal;font-stretch:normal;font-size:4.58611px;line-height:125%;font-family:'Bitstream Vera Sans';-inkscape-font-specification:'Bitstream Vera Sans, Normal';font-variant-ligatures:normal;font-variant-caps:normal;font-variant-numeric:normal;font-variant-east-asian:normal;letter-spacing:0px;word-spacing:0px;fill:#008080;stroke:none;stroke-width:2.31854px;stroke-linecap:butt;stroke-linejoin:miter;stroke-opacity:1"
       x="156.33102"
       y="56.84959"
       id="text152650-9-6-8-4-6-8-1-01"><tspan
         sodipodi:role="line"
         id="tspan152648-3-2-7-1-49-4-7-645"
         style="font-style:normal;font-variant:normal;font-weight:normal;font-stretch:normal;font-size:4.58611px;font-family:'Bitstream Vera Sans';-inkscape-font-specification:'Bitstream Vera Sans, Normal';font-variant-ligatures:normal;font-variant-caps:normal;font-variant-numeric:normal;font-variant-east-asian:normal;fill:#008080;stroke:none;stroke-width:2.31854px"
         x="156.33102"
         y="56.84959">F</tspan></text>
    <circle
       style="fill:#00ffff;stroke:#999999;stroke-width:0.464438;stroke-miterlimit:4;stroke-dasharray:none;stroke-opacity:1;stop-color:#000000"
       id="circle11627-9-3-8-8"
       cx="45.139416"
       cy="102.87117"
       r="1.7012168" />
    <text
       xml:space="preserve"
       style="font-style:normal;font-variant:normal;font-weight:normal;font-stretch:normal;font-size:4.58611px;line-height:125%;font-family:'Bitstream Vera Sans';-inkscape-font-specification:'Bitstream Vera Sans, Normal';font-variant-ligatures:normal;font-variant-caps:normal;font-variant-numeric:normal;font-variant-east-asian:normal;letter-spacing:0px;word-spacing:0px;fill:#008080;stroke:none;stroke-width:2.31854px;stroke-linecap:butt;stroke-linejoin:miter;stroke-opacity:1"
       x="44.95863"
       y="100.77042"
       id="text152650-9-6-8-4-6-8-1-4"><tspan
         sodipodi:role="line"
         id="tspan152648-3-2-7-1-49-4-7-3"
         style="font-style:normal;font-variant:normal;font-weight:normal;font-stretch:normal;font-size:4.58611px;font-family:'Bitstream Vera Sans';-inkscape-font-specification:'Bitstream Vera Sans, Normal';font-variant-ligatures:normal;font-variant-caps:normal;font-variant-numeric:normal;font-variant-east-asian:normal;fill:#008080;stroke:none;stroke-width:2.31854px"
         x="44.95863"
         y="100.77042">1</tspan></text>
    <circle
       style="fill:#00ffff;stroke:#999999;stroke-width:0.464438;stroke-miterlimit:4;stroke-dasharray:none;stroke-opacity:1;stop-color:#000000"
       id="circle11627-9-3-8-9"
       cx="59.224056"
       cy="102.87117"
       r="1.7012168" />
    <text
       xml:space="preserve"
       style="font-style:normal;font-variant:normal;font-weight:normal;font-stretch:normal;font-size:4.58611px;line-height:125%;font-family:'Bitstream Vera Sans';-inkscape-font-specification:'Bitstream Vera Sans, Normal';font-variant-ligatures:normal;font-variant-caps:normal;font-variant-numeric:normal;font-variant-east-asian:normal;letter-spacing:0px;word-spacing:0px;fill:#008080;stroke:none;stroke-width:2.31854px;stroke-linecap:butt;stroke-linejoin:miter;stroke-opacity:1"
       x="57.394047"
       y="99.44751"
       id="text152650-9-6-8-4-6-8-1-3"><tspan
         sodipodi:role="line"
         id="tspan152648-3-2-7-1-49-4-7-4"
         style="font-style:normal;font-variant:normal;font-weight:normal;font-stretch:normal;font-size:4.58611px;font-family:'Bitstream Vera Sans';-inkscape-font-specification:'Bitstream Vera Sans, Normal';font-variant-ligatures:normal;font-variant-caps:normal;font-variant-numeric:normal;font-variant-east-asian:normal;fill:#008080;stroke:none;stroke-width:2.31854px"
         x="57.394047"
         y="99.44751">2</tspan></text>
    <circle
       style="fill:#00ffff;stroke:#999999;stroke-width:0.464438;stroke-miterlimit:4;stroke-dasharray:none;stroke-opacity:1;stop-color:#000000"
       id="circle11627-9-3-8-3"
       cx="66.266808"
       cy="90.670448"
       r="1.7012168" />
    <text
       xml:space="preserve"
       style="font-style:normal;font-variant:normal;font-weight:normal;font-stretch:normal;font-size:4.58611px;line-height:125%;font-family:'Bitstream Vera Sans';-inkscape-font-specification:'Bitstream Vera Sans, Normal';font-variant-ligatures:normal;font-variant-caps:normal;font-variant-numeric:normal;font-variant-east-asian:normal;letter-spacing:0px;word-spacing:0px;fill:#008080;stroke:none;stroke-width:2.31854px;stroke-linecap:butt;stroke-linejoin:miter;stroke-opacity:1"
       x="66.919044"
       y="87.54126"
       id="text152650-9-6-8-4-6-8-1-2"><tspan
         sodipodi:role="line"
         id="tspan152648-3-2-7-1-49-4-7-0"
         style="font-style:normal;font-variant:normal;font-weight:normal;font-stretch:normal;font-size:4.58611px;font-family:'Bitstream Vera Sans';-inkscape-font-specification:'Bitstream Vera Sans, Normal';font-variant-ligatures:normal;font-variant-caps:normal;font-variant-numeric:normal;font-variant-east-asian:normal;fill:#008080;stroke:none;stroke-width:2.31854px"
         x="66.919044"
         y="87.54126">3</tspan></text>
    <circle
       style="fill:#00ffff;stroke:#999999;stroke-width:0.464438;stroke-miterlimit:4;stroke-dasharray:none;stroke-opacity:1;stop-color:#000000"
       id="circle11627-9-3-8-80"
       cx="80.351448"
       cy="90.670448"
       r="1.7012168" />
    <text
       xml:space="preserve"
       style="font-style:normal;font-variant:normal;font-weight:normal;font-stretch:normal;font-size:4.58611px;line-height:125%;font-family:'Bitstream Vera Sans';-inkscape-font-specification:'Bitstream Vera Sans, Normal';font-variant-ligatures:normal;font-variant-caps:normal;font-variant-numeric:normal;font-variant-east-asian:normal;letter-spacing:0px;word-spacing:0px;fill:#008080;stroke:none;stroke-width:2.31854px;stroke-linecap:butt;stroke-linejoin:miter;stroke-opacity:1"
       x="79.089882"
       y="88.070427"
       id="text152650-9-6-8-4-6-8-1-9"><tspan
         sodipodi:role="line"
         id="tspan152648-3-2-7-1-49-4-7-6"
         style="font-style:normal;font-variant:normal;font-weight:normal;font-stretch:normal;font-size:4.58611px;font-family:'Bitstream Vera Sans';-inkscape-font-specification:'Bitstream Vera Sans, Normal';font-variant-ligatures:normal;font-variant-caps:normal;font-variant-numeric:normal;font-variant-east-asian:normal;fill:#008080;stroke:none;stroke-width:2.31854px"
         x="79.089882"
         y="88.070427">4</tspan></text>
    <circle
       style="fill:#00ffff;stroke:#999999;stroke-width:0.464438;stroke-miterlimit:4;stroke-dasharray:none;stroke-opacity:1;stop-color:#000000"
       id="circle11627-9-3-8-4"
       cx="59.224056"
       cy="78.47403"
       r="1.7012168" />
    <text
       xml:space="preserve"
       style="font-style:normal;font-variant:normal;font-weight:normal;font-stretch:normal;font-size:4.58611px;line-height:125%;font-family:'Bitstream Vera Sans';-inkscape-font-specification:'Bitstream Vera Sans, Normal';font-variant-ligatures:normal;font-variant-caps:normal;font-variant-numeric:normal;font-variant-east-asian:normal;letter-spacing:0px;word-spacing:0px;fill:#008080;stroke:none;stroke-width:2.31854px;stroke-linecap:butt;stroke-linejoin:miter;stroke-opacity:1"
       x="54.911957"
       y="76.443085"
       id="text152650-9-6-8-4-6-8-1-48"><tspan
         sodipodi:role="line"
         id="tspan152648-3-2-7-1-49-4-7-49"
         style="font-style:normal;font-variant:normal;font-weight:normal;font-stretch:normal;font-size:4.58611px;font-family:'Bitstream Vera Sans';-inkscape-font-specification:'Bitstream Vera Sans, Normal';font-variant-ligatures:normal;font-variant-caps:normal;font-variant-numeric:normal;font-variant-east-asian:normal;fill:#008080;stroke:none;stroke-width:2.31854px"
         x="54.911957"
         y="76.443085">5</tspan></text>
    <circle
       style="fill:#00ffff;stroke:#999999;stroke-width:0.464438;stroke-miterlimit:4;stroke-dasharray:none;stroke-opacity:1;stop-color:#000000"
       id="circle11627-9-3-8-1"
       cx="66.266808"
       cy="66.277618"
       r="1.7012168" />
    <text
       xml:space="preserve"
       style="font-style:normal;font-variant:normal;font-weight:normal;font-stretch:normal;font-size:4.58611px;line-height:125%;font-family:'Bitstream Vera Sans';-inkscape-font-specification:'Bitstream Vera Sans, Normal';font-variant-ligatures:normal;font-variant-caps:normal;font-variant-numeric:normal;font-variant-east-asian:normal;letter-spacing:0px;word-spacing:0px;fill:#008080;stroke:none;stroke-width:2.31854px;stroke-linecap:butt;stroke-linejoin:miter;stroke-opacity:1"
       x="45.929619"
       y="60.745823"
       id="text152650-9-6-8-4-6-8-1-96"><tspan
         sodipodi:role="line"
         id="tspan152648-3-2-7-1-49-4-7-8"
         style="font-style:normal;font-variant:normal;font-weight:normal;font-stretch:normal;font-size:4.58611px;font-family:'Bitstream Vera Sans';-inkscape-font-specification:'Bitstream Vera Sans, Normal';font-variant-ligatures:normal;font-variant-caps:normal;font-variant-numeric:normal;font-variant-east-asian:normal;fill:#008080;stroke:none;stroke-width:2.31854px"
         x="45.929619"
         y="60.745823">6</tspan></text>
    <circle
       style="fill:#00ffff;stroke:#999999;stroke-width:0.464438;stroke-miterlimit:4;stroke-dasharray:none;stroke-opacity:1;stop-color:#000000"
       id="circle11627-9-3-8-6"
       cx="80.351448"
       cy="66.277618"
       r="1.7012168" />
    <text
       xml:space="preserve"
       style="font-style:normal;font-variant:normal;font-weight:normal;font-stretch:normal;font-size:4.58611px;line-height:125%;font-family:'Bitstream Vera Sans';-inkscape-font-specification:'Bitstream Vera Sans, Normal';font-variant-ligatures:normal;font-variant-caps:normal;font-variant-numeric:normal;font-variant-east-asian:normal;letter-spacing:0px;word-spacing:0px;fill:#008080;stroke:none;stroke-width:2.31854px;stroke-linecap:butt;stroke-linejoin:miter;stroke-opacity:1"
       x="55.09724"
       y="50.715176"
       id="text152650-9-6-8-4-6-8-1-38"><tspan
         sodipodi:role="line"
         id="tspan152648-3-2-7-1-49-4-7-9"
         style="font-style:normal;font-variant:normal;font-weight:normal;font-stretch:normal;font-size:4.58611px;font-family:'Bitstream Vera Sans';-inkscape-font-specification:'Bitstream Vera Sans, Normal';font-variant-ligatures:normal;font-variant-caps:normal;font-variant-numeric:normal;font-variant-east-asian:normal;fill:#008080;stroke:none;stroke-width:2.31854px"
         x="55.09724"
         y="50.715176">7</tspan></text>
    <circle
       style="fill:#00ffff;stroke:#999999;stroke-width:0.464438;stroke-miterlimit:4;stroke-dasharray:none;stroke-opacity:1;stop-color:#000000"
       id="circle11627-9-3-8-7"
       cx="45.139416"
       cy="54.0769"
       r="1.7012168" />
    <text
       xml:space="preserve"
       style="font-style:normal;font-variant:normal;font-weight:normal;font-stretch:normal;font-size:4.58611px;line-height:125%;font-family:'Bitstream Vera Sans';-inkscape-font-specification:'Bitstream Vera Sans, Normal';font-variant-ligatures:normal;font-variant-caps:normal;font-variant-numeric:normal;font-variant-east-asian:normal;letter-spacing:0px;word-spacing:0px;fill:#008080;stroke:none;stroke-width:2.31854px;stroke-linecap:butt;stroke-linejoin:miter;stroke-opacity:1"
       x="67.408195"
       y="62.973007"
       id="text152650-9-6-8-4-6-8-1-1"><tspan
         sodipodi:role="line"
         id="tspan152648-3-2-7-1-49-4-7-98"
         style="font-style:normal;font-variant:normal;font-weight:normal;font-stretch:normal;font-size:4.58611px;font-family:'Bitstream Vera Sans';-inkscape-font-specification:'Bitstream Vera Sans, Normal';font-variant-ligatures:normal;font-variant-caps:normal;font-variant-numeric:normal;font-variant-east-asian:normal;fill:#008080;stroke:none;stroke-width:2.31854px"
         x="67.408195"
         y="62.973007">8</tspan></text>
    <circle
       style="fill:#00ffff;stroke:#999999;stroke-width:0.464438;stroke-miterlimit:4;stroke-dasharray:none;stroke-opacity:1;stop-color:#000000"
       id="circle11627-9-3-8-5"
       cx="59.224056"
       cy="54.0769"
       r="1.7012168" />
    <text
       xml:space="preserve"
       style="font-style:normal;font-variant:normal;font-weight:normal;font-stretch:normal;font-size:4.58611px;line-height:125%;font-family:'Bitstream Vera Sans';-inkscape-font-specification:'Bitstream Vera Sans, Normal';font-variant-ligatures:normal;font-variant-caps:normal;font-variant-numeric:normal;font-variant-east-asian:normal;letter-spacing:0px;word-spacing:0px;fill:#008080;stroke:none;stroke-width:2.31854px;stroke-linecap:butt;stroke-linejoin:miter;stroke-opacity:1"
       x="78.983696"
       y="73.098312"
       id="text152650-9-6-8-4-6-8-1-93"><tspan
         sodipodi:role="line"
         id="tspan152648-3-2-7-1-49-4-7-99"
         style="font-style:normal;font-variant:normal;font-weight:normal;font-stretch:normal;font-size:4.58611px;font-family:'Bitstream Vera Sans';-inkscape-font-specification:'Bitstream Vera Sans, Normal';font-variant-ligatures:normal;font-variant-caps:normal;font-variant-numeric:normal;font-variant-east-asian:normal;fill:#008080;stroke:none;stroke-width:2.31854px"
         x="78.983696"
         y="73.098312">9</tspan></text>
    <circle
       style="fill:#00ffff;stroke:#999999;stroke-width:0.464438;stroke-miterlimit:4;stroke-dasharray:none;stroke-opacity:1;stop-color:#000000"
       id="circle11627-9-3-8-35"
       cx="66.266808"
       cy="41.880486"
       r="1.7012168" />
    <text
       xml:space="preserve"
       style="font-style:normal;font-variant:normal;font-weight:normal;font-stretch:normal;font-size:4.58611px;line-height:125%;font-family:'Bitstream Vera Sans';-inkscape-font-specification:'Bitstream Vera Sans, Normal';font-variant-ligatures:normal;font-variant-caps:normal;font-variant-numeric:normal;font-variant-east-asian:normal;letter-spacing:0px;word-spacing:0px;fill:#008080;stroke:none;stroke-width:2.31854px;stroke-linecap:butt;stroke-linejoin:miter;stroke-opacity:1"
       x="67.965477"
       y="48.059795"
       id="text152650-9-6-8-4-6-8-1-0"><tspan
         sodipodi:role="line"
         id="tspan152648-3-2-7-1-49-4-7-41"
         style="font-style:normal;font-variant:normal;font-weight:normal;font-stretch:normal;font-size:4.58611px;font-family:'Bitstream Vera Sans';-inkscape-font-specification:'Bitstream Vera Sans, Normal';font-variant-ligatures:normal;font-variant-caps:normal;font-variant-numeric:normal;font-variant-east-asian:normal;fill:#008080;stroke:none;stroke-width:2.31854px"
         x="67.965477"
         y="48.059795">10</tspan></text>
    <text
       xml:space="preserve"
       style="font-style:normal;font-variant:normal;font-weight:normal;font-stretch:normal;font-size:23.059px;line-height:125%;font-family:'Bitstream Vera Sans';-inkscape-font-specification:'Bitstream Vera Sans, Normal';font-variant-ligatures:normal;font-variant-position:normal;font-variant-caps:normal;font-variant-numeric:normal;font-variant-alternates:normal;font-variant-east-asian:normal;font-feature-settings:normal;font-variation-settings:normal;text-indent:0;text-align:start;text-decoration-line:none;text-decoration-style:solid;text-decoration-color:#000000;letter-spacing:0px;word-spacing:0px;text-transform:none;writing-mode:lr-tb;direction:ltr;text-orientation:mixed;dominant-baseline:auto;baseline-shift:baseline;text-anchor:start;white-space:normal;shape-padding:0;shape-margin:0;inline-size:0;opacity:1;vector-effect:none;fill:#008080;fill-opacity:1;stroke:none;stroke-width:8.76299px;stroke-linecap:butt;stroke-linejoin:miter;stroke-miterlimit:4;stroke-dasharray:none;stroke-dashoffset:0;stroke-opacity:1;-inkscape-stroke:none;stop-color:#000000;stop-opacity:1"
       x="216.92238"
       y="375.86459"
       id="text130"
       transform="scale(0.26458333)"><tspan
         sodipodi:role="line"
         id="tspan130"></tspan></text>
  </g>
</svg>
